<svg width="12" height="16" viewBox="0 0 12 16" fill="none" xmlns="http://www.w3.org/2000/svg">
<path d="M11 6C11.1458 6 11.2604 6.05208 11.3438 6.15625C11.4479 6.23958 11.5 6.35417 11.5 6.5V8C11.5 9.375 11.0417 10.5833 10.125 11.625C9.22917 12.6458 8.10417 13.25 6.75 13.4375V14.5H8.5C8.64583 14.5 8.76042 14.5417 8.84375 14.625C8.94792 14.7292 9 14.8542 9 15V15.5C9 15.6458 8.94792 15.7604 8.84375 15.8438C8.76042 15.9479 8.64583 16 8.5 16H3.5C3.35417 16 3.22917 15.9479 3.125 15.8438C3.04167 15.7604 3 15.6458 3 15.5V15C3 14.8542 3.04167 14.7292 3.125 14.625C3.22917 14.5417 3.35417 14.5 3.5 14.5H5.25V13.4375C3.89583 13.25 2.76042 12.6146 1.84375 11.5312C0.947917 10.4271 0.5 9.16667 0.5 7.75V6.5C0.5 6.35417 0.541667 6.23958 0.625 6.15625C0.729167 6.05208 0.854167 6 1 6H1.5C1.64583 6 1.76042 6.05208 1.84375 6.15625C1.94792 6.23958 2 6.35417 2 6.5V7.8125C2 8.875 2.34375 9.8125 3.03125 10.625C3.71875 11.4375 4.57292 11.8854 5.59375 11.9688C6.78125 12.0938 7.8125 11.7604 8.6875 10.9688C9.5625 10.1562 10 9.16667 10 8V6.5C10 6.35417 10.0417 6.23958 10.125 6.15625C10.2292 6.05208 10.3542 6 10.5 6H11ZM8.125 10.125C7.54167 10.7083 6.83333 11 6 11C5.16667 11 4.45833 10.7083 3.875 10.125C3.29167 9.54167 3 8.83333 3 8V3C3 2.16667 3.29167 1.45833 3.875 0.875C4.45833 0.291667 5.16667 0 6 0C6.83333 0 7.54167 0.291667 8.125 0.875C8.70833 1.45833 9 2.16667 9 3V8C9 8.83333 8.70833 9.54167 8.125 10.125ZM4.5 3V8C4.5 8.41667 4.64583 8.77083 4.9375 9.0625C5.22917 9.35417 5.58333 9.5 6 9.5C6.41667 9.5 6.77083 9.35417 7.0625 9.0625C7.35417 8.77083 7.5 8.41667 7.5 8V3C7.5 2.58333 7.35417 2.22917 7.0625 1.9375C6.77083 1.64583 6.41667 1.5 6 1.5C5.58333 1.5 5.22917 1.64583 4.9375 1.9375C4.64583 2.22917 4.5 2.58333 4.5 3Z" fill="#ACB5BD"/>
</svg>
