<svg width="17" height="16" viewBox="0 0 17 16" fill="none" xmlns="http://www.w3.org/2000/svg">
<path d="M15.6562 5.59375C16.3229 7.63542 16.1667 9.61458 15.1875 11.5312C14.2083 13.4271 12.7083 14.7083 10.6875 15.375C9.89583 15.625 9.09375 15.75 8.28125 15.75C6.63542 15.75 5.125 15.2604 3.75 14.2812C2.375 13.3021 1.42708 12.0104 0.90625 10.4062C0.239583 8.36458 0.395833 6.39583 1.375 4.5C2.35417 2.58333 3.85417 1.29167 5.875 0.625C6.66667 0.375 7.46875 0.25 8.28125 0.25C9.36458 0.25 10.3958 0.46875 11.375 0.90625C12.375 1.34375 13.25 1.96875 14 2.78125C14.75 3.59375 15.3021 4.53125 15.6562 5.59375ZM13.3125 11.6562C13.5625 11.3229 13.7396 11.0521 13.8438 10.8438C14.2812 9.96875 14.5104 9.04167 14.5312 8.0625L13.3125 6.90625L11.0938 7.59375L10.3125 9.96875L11.6875 11.875L13.3125 11.6562ZM13.3125 4.3125C12.5417 3.22917 11.5208 2.47917 10.25 2.0625L8.78125 2.875V5.1875L10.7812 6.65625L13 5.96875L13.3125 4.3125ZM6.3125 2.0625C5.0625 2.47917 4.04167 3.22917 3.25 4.3125L3.5625 5.96875L5.78125 6.65625L7.78125 5.1875V2.875L6.3125 2.0625ZM4.875 11.875L6.21875 9.9375L5.46875 7.625L3.25 6.90625L2.03125 8.0625C2.05208 9.375 2.44792 10.5729 3.21875 11.6562L4.875 11.875ZM6.375 13.9375C7.58333 14.3333 8.85417 14.3333 10.1875 13.9375L10.875 12.4375L9.5 10.5312H7.03125L5.6875 12.4375L6.375 13.9375Z" fill="#ACB5BD"/>
</svg>
