<svg width="17" height="14" viewBox="0 0 17 14" fill="none" xmlns="http://www.w3.org/2000/svg">
<path d="M8.8125 12.375L12.2188 9H14.375L9.875 13.4375C9.5 13.8125 9.04167 14 8.5 14C7.95833 14 7.5 13.8125 7.125 13.4375L2.625 9H4.78125L8.1875 12.375C8.39583 12.5833 8.60417 12.5833 8.8125 12.375ZM11.5938 0C12.8021 0 13.9167 0.447917 14.9375 1.34375C15.9792 2.23958 16.5 3.41667 16.5 4.875C16.5 6.04167 16.1042 7.08333 15.3125 8H11.1875L10.5 6.625L8.9375 9.71875C8.85417 9.90625 8.70833 10 8.5 10C8.29167 10 8.13542 9.90625 8.03125 9.71875L6.25 5.75L5.34375 8H1.6875C0.895833 7.08333 0.5 6.04167 0.5 4.875C0.5 3.41667 1.01042 2.23958 2.03125 1.34375C3.07292 0.447917 4.19792 0 5.40625 0C6.57292 0 7.60417 0.364583 8.5 1.09375C9.39583 0.364583 10.4271 0 11.5938 0ZM14.2188 7C14.6562 6.47917 14.9062 5.89583 14.9688 5.25C15.0312 4.58333 14.9271 3.97917 14.6562 3.4375C14.4062 2.89583 14 2.4375 13.4375 2.0625C12.8958 1.6875 12.2812 1.5 11.5938 1.5C11.0729 1.5 10.6042 1.59375 10.1875 1.78125C9.79167 1.96875 9.22917 2.42708 8.5 3.15625C7.79167 2.46875 7.22917 2.02083 6.8125 1.8125C6.39583 1.60417 5.92708 1.5 5.40625 1.5C4.71875 1.5 4.09375 1.6875 3.53125 2.0625C2.98958 2.4375 2.58333 2.89583 2.3125 3.4375C2.0625 3.97917 1.96875 4.58333 2.03125 5.25C2.09375 5.89583 2.34375 6.47917 2.78125 7H4.65625L5.78125 4.3125C5.86458 4.10417 6.01042 4 6.21875 4C6.44792 4 6.61458 4.09375 6.71875 4.28125L8.53125 8.34375L10.0625 5.28125C10.1458 5.09375 10.2917 5 10.5 5C10.7083 5 10.8542 5.09375 10.9375 5.28125L11.8125 7H14.2188Z" fill="#ACB5BD"/>
</svg>
