<svg width="153" height="30" viewBox="0 0 153 30" fill="none" xmlns="http://www.w3.org/2000/svg">
<path d="M12.5 25C18.0228 25 22.5 20.5228 22.5 15C22.5 9.47715 18.0228 5 12.5 5C6.97715 5 2.5 9.47715 2.5 15C2.5 20.5228 6.97715 25 12.5 25Z" stroke="#495057" stroke-width="2" stroke-linecap="round" stroke-linejoin="round"/>
<path d="M12.5 9V15L16.5 17" stroke="#495057" stroke-width="2" stroke-linecap="round" stroke-linejoin="round"/>
<path d="M35.0312 15.418H36.0039C36.6562 15.418 37.1289 15.2969 37.4219 15.0547C37.7148 14.8125 37.8613 14.4531 37.8613 13.9766C37.8613 13.4922 37.7031 13.1445 37.3867 12.9336C37.0703 12.7227 36.5938 12.6172 35.957 12.6172H35.0312V15.418ZM35.0312 16.5781V20H33.6309V11.4336H36.0508C37.1562 11.4336 37.9746 11.6406 38.5059 12.0547C39.0371 12.4688 39.3027 13.0938 39.3027 13.9297C39.3027 14.9961 38.748 15.7559 37.6387 16.209L40.0586 20H38.4648L36.4141 16.5781H35.0312ZM47.1123 20H42.2666V11.4336H47.1123V12.6172H43.667V14.9492H46.8955V16.1211H43.667V18.8105H47.1123V20ZM53.5743 12.5117C52.7696 12.5117 52.1368 12.7969 51.6759 13.3672C51.2149 13.9375 50.9845 14.7246 50.9845 15.7285C50.9845 16.7793 51.2052 17.5742 51.6466 18.1133C52.0919 18.6523 52.7345 18.9219 53.5743 18.9219C53.9376 18.9219 54.2891 18.8867 54.629 18.8164C54.9688 18.7422 55.3223 18.6484 55.6895 18.5352V19.7363C55.0177 19.9902 54.2559 20.1172 53.4044 20.1172C52.1505 20.1172 51.1876 19.7383 50.5157 18.9805C49.8438 18.2188 49.5079 17.1309 49.5079 15.7168C49.5079 14.8262 49.67 14.0469 49.9942 13.3789C50.3223 12.7109 50.795 12.1992 51.4122 11.8438C52.0294 11.4883 52.754 11.3105 53.586 11.3105C54.461 11.3105 55.2696 11.4941 56.0118 11.8613L55.5079 13.0273C55.2188 12.8906 54.9122 12.7715 54.588 12.6699C54.2677 12.5645 53.9298 12.5117 53.5743 12.5117ZM63.3409 20H58.4952V11.4336H63.3409V12.6172H59.8956V14.9492H63.1241V16.1211H59.8956V18.8105H63.3409V20ZM73.2951 20H71.5783L67.3654 13.1738H67.3185L67.3478 13.5547C67.4025 14.2812 67.4298 14.9453 67.4298 15.5469V20H66.1584V11.4336H67.8576L72.0588 18.2246H72.0939C72.0861 18.1348 72.0705 17.8086 72.047 17.2461C72.0236 16.6797 72.0119 16.2383 72.0119 15.9219V11.4336H73.2951V20ZM79.4758 20H78.0754V12.6348H75.5559V11.4336H81.9953V12.6348H79.4758V20ZM84.2737 20V11.4336H85.6741V18.7988H89.301V20H84.2737ZM94.1575 15.3418L96.1848 11.4336H97.7083L94.8548 16.6777V20H93.4485V16.7246L90.6067 11.4336H92.1302L94.1575 15.3418ZM108.757 11.4336H110.21L107.21 20H105.734L102.745 11.4336H104.187L105.974 16.7598C106.068 17.0137 106.167 17.3418 106.273 17.7441C106.378 18.1426 106.447 18.4395 106.478 18.6348C106.529 18.3379 106.607 17.9941 106.712 17.6035C106.818 17.2129 106.904 16.9238 106.97 16.7363L108.757 11.4336ZM112.301 20V11.4336H113.702V20H112.301ZM121.775 20H116.929V11.4336H121.775V12.6172H118.33V14.9492H121.558V16.1211H118.33V18.8105H121.775V20ZM132.497 20H130.973L129.52 14.8906C129.457 14.668 129.379 14.3477 129.286 13.9297C129.192 13.5078 129.135 13.2148 129.116 13.0508C129.077 13.3008 129.012 13.625 128.922 14.0234C128.836 14.4219 128.764 14.7188 128.706 14.9141L127.288 20H125.764L124.657 15.7109L123.532 11.4336H124.961L126.186 16.4258C126.377 17.2266 126.514 17.9336 126.596 18.5469C126.639 18.2148 126.704 17.8438 126.79 17.4336C126.875 17.0234 126.954 16.6914 127.024 16.4375L128.418 11.4336H129.807L131.237 16.4609C131.374 16.9258 131.518 17.6211 131.67 18.5469C131.729 17.9883 131.87 17.2773 132.092 16.4141L133.311 11.4336H134.729L132.497 20ZM141.753 20H136.908V11.4336H141.753V12.6172H138.308V14.9492H141.537V16.1211H138.308V18.8105H141.753V20ZM151.538 15.6348C151.538 17.0488 151.145 18.1309 150.36 18.8809C149.575 19.627 148.444 20 146.967 20H144.571V11.4336H147.219C148.583 11.4336 149.643 11.8008 150.401 12.5352C151.159 13.2695 151.538 14.3027 151.538 15.6348ZM150.061 15.6816C150.061 13.6309 149.102 12.6055 147.184 12.6055H145.971V18.8223H146.967C149.03 18.8223 150.061 17.7754 150.061 15.6816Z" fill="#495057"/>
</svg>
