<svg width="177" height="30" viewBox="0 0 177 30" fill="none" xmlns="http://www.w3.org/2000/svg">
<g clip-path="url(#clip0)">
<path d="M17.5 24V22C17.5 20.9391 17.0786 19.9217 16.3284 19.1716C15.5783 18.4214 14.5609 18 13.5 18H5.5C4.43913 18 3.42172 18.4214 2.67157 19.1716C1.92143 19.9217 1.5 20.9391 1.5 22V24" stroke="#495057" stroke-width="2" stroke-linecap="round" stroke-linejoin="round"/>
<path d="M9.5 14C11.7091 14 13.5 12.2091 13.5 10C13.5 7.79086 11.7091 6 9.5 6C7.29086 6 5.5 7.79086 5.5 10C5.5 12.2091 7.29086 14 9.5 14Z" stroke="#495057" stroke-width="2" stroke-linecap="round" stroke-linejoin="round"/>
<path d="M23.5 23.9999V21.9999C23.4993 21.1136 23.2044 20.2527 22.6614 19.5522C22.1184 18.8517 21.3581 18.3515 20.5 18.1299" stroke="#495057" stroke-width="2" stroke-linecap="round" stroke-linejoin="round"/>
<path d="M16.5 6.12988C17.3604 6.35018 18.123 6.85058 18.6676 7.55219C19.2122 8.2538 19.5078 9.11671 19.5078 10.0049C19.5078 10.8931 19.2122 11.756 18.6676 12.4576C18.123 13.1592 17.3604 13.6596 16.5 13.8799" stroke="#495057" stroke-width="2" stroke-linecap="round" stroke-linejoin="round"/>
</g>
<path d="M38.9453 20L38.0898 17.6211H34.8145L33.9766 20H32.5L35.7051 11.3984H37.2285L40.4336 20H38.9453ZM37.7207 16.4141L36.918 14.082C36.8594 13.9258 36.7773 13.6797 36.6719 13.3438C36.5703 13.0078 36.5 12.7617 36.4609 12.6055C36.3555 13.0859 36.2012 13.6113 35.998 14.1816L35.2246 16.4141H37.7207ZM43.9131 20H42.5245V11.4336H47.3584V12.6172H43.9131V15.2949H47.1416V16.4844H43.9131V20ZM51.2598 20H49.8712V11.4336H54.7052V12.6172H51.2598V15.2949H54.4884V16.4844H51.2598V20ZM57.2179 20V11.4336H58.6183V20H57.2179ZM67.1603 20L66.3048 17.6211H63.0295L62.1916 20H60.715L63.9201 11.3984H65.4435L68.6486 20H67.1603ZM65.9357 16.4141L65.133 14.082C65.0744 13.9258 64.9923 13.6797 64.8869 13.3438C64.7853 13.0078 64.715 12.7617 64.6759 12.6055C64.5705 13.0859 64.4162 13.6113 64.213 14.1816L63.4396 16.4141H65.9357ZM70.7395 20V11.4336H72.1398V18.7988H75.7668V20H70.7395ZM78.2034 20V11.4336H79.6037V20H78.2034ZM88.1458 20L87.2903 17.6211H84.0149L83.177 20H81.7005L84.9055 11.3984H86.429L89.6341 20H88.1458ZM86.9212 16.4141L86.1184 14.082C86.0598 13.9258 85.9778 13.6797 85.8723 13.3438C85.7708 13.0078 85.7005 12.7617 85.6614 12.6055C85.5559 13.0859 85.4016 13.6113 85.1985 14.1816L84.4251 16.4141H86.9212ZM94.6839 20H93.2835V12.6348H90.764V11.4336H97.2034V12.6348H94.6839V20ZM104.327 20H99.4818V11.4336H104.327V12.6172H100.882V14.9492H104.111V16.1211H100.882V18.8105H104.327V20ZM116.894 14.0234C116.894 14.918 116.601 15.6035 116.015 16.0801C115.429 16.5566 114.595 16.7949 113.513 16.7949H112.622V20H111.222V11.4336H113.689C114.759 11.4336 115.56 11.6523 116.091 12.0898C116.626 12.5273 116.894 13.1719 116.894 14.0234ZM112.622 15.6172H113.367C114.085 15.6172 114.613 15.4922 114.949 15.2422C115.285 14.9922 115.453 14.6016 115.453 14.0703C115.453 13.5781 115.302 13.2109 115.001 12.9688C114.701 12.7266 114.232 12.6055 113.595 12.6055H112.622V15.6172ZM120.965 15.418H121.938C122.59 15.418 123.063 15.2969 123.356 15.0547C123.649 14.8125 123.795 14.4531 123.795 13.9766C123.795 13.4922 123.637 13.1445 123.321 12.9336C123.004 12.7227 122.528 12.6172 121.891 12.6172H120.965V15.418ZM120.965 16.5781V20H119.565V11.4336H121.985C123.09 11.4336 123.909 11.6406 124.44 12.0547C124.971 12.4688 125.237 13.0938 125.237 13.9297C125.237 14.9961 124.682 15.7559 123.573 16.209L125.993 20H124.399L122.348 16.5781H120.965ZM135.806 15.7051C135.806 17.0996 135.457 18.1836 134.757 18.957C134.062 19.7305 133.076 20.1172 131.798 20.1172C130.505 20.1172 129.511 19.7344 128.816 18.9688C128.125 18.1992 127.779 17.1074 127.779 15.6934C127.779 14.2793 128.126 13.1934 128.822 12.4355C129.521 11.6777 130.517 11.2988 131.81 11.2988C133.084 11.2988 134.068 11.6836 134.763 12.4531C135.459 13.2227 135.806 14.3066 135.806 15.7051ZM129.267 15.7051C129.267 16.7598 129.48 17.5605 129.906 18.1074C130.332 18.6504 130.962 18.9219 131.798 18.9219C132.63 18.9219 133.257 18.6523 133.679 18.1133C134.105 17.5742 134.318 16.7715 134.318 15.7051C134.318 14.6543 134.107 13.8574 133.685 13.3145C133.267 12.7715 132.642 12.5 131.81 12.5C130.97 12.5 130.335 12.7715 129.906 13.3145C129.48 13.8574 129.267 14.6543 129.267 15.7051ZM142.11 15.3535H145.262V19.6543C144.747 19.8223 144.251 19.9414 143.774 20.0117C143.301 20.082 142.79 20.1172 142.239 20.1172C140.942 20.1172 139.942 19.7344 139.239 18.9688C138.536 18.1992 138.184 17.1152 138.184 15.7168C138.184 14.3379 138.581 13.2598 139.374 12.4824C140.167 11.7012 141.258 11.3105 142.649 11.3105C143.544 11.3105 144.391 11.4824 145.192 11.8262L144.7 12.9922C144.004 12.6719 143.309 12.5117 142.614 12.5117C141.7 12.5117 140.977 12.7988 140.446 13.373C139.915 13.9473 139.649 14.7324 139.649 15.7285C139.649 16.7754 139.887 17.5723 140.364 18.1191C140.844 18.6621 141.534 18.9336 142.432 18.9336C142.885 18.9336 143.37 18.877 143.885 18.7637V16.5547H142.11V15.3535ZM149.685 15.418H150.658C151.31 15.418 151.783 15.2969 152.076 15.0547C152.369 14.8125 152.515 14.4531 152.515 13.9766C152.515 13.4922 152.357 13.1445 152.041 12.9336C151.724 12.7227 151.248 12.6172 150.611 12.6172H149.685V15.418ZM149.685 16.5781V20H148.285V11.4336H150.705C151.81 11.4336 152.629 11.6406 153.16 12.0547C153.691 12.4688 153.957 13.0938 153.957 13.9297C153.957 14.9961 153.402 15.7559 152.293 16.209L154.713 20H153.119L151.068 16.5781H149.685ZM162.235 20L161.38 17.6211H158.104L157.266 20H155.79L158.995 11.3984H160.518L163.723 20H162.235ZM161.01 16.4141L160.208 14.082C160.149 13.9258 160.067 13.6797 159.962 13.3438C159.86 13.0078 159.79 12.7617 159.751 12.6055C159.645 13.0859 159.491 13.6113 159.288 14.1816L158.514 16.4141H161.01ZM169.517 20L167.033 12.8457H166.986C167.052 13.9082 167.086 14.9043 167.086 15.834V20H165.814V11.4336H167.789L170.168 18.248H170.203L172.652 11.4336H174.632V20H173.285V15.7637C173.285 15.3379 173.295 14.7832 173.314 14.0996C173.338 13.416 173.357 13.002 173.373 12.8574H173.326L170.754 20H169.517Z" fill="#495057"/>
<defs>
<clipPath id="clip0">
<rect width="24" height="24" fill="white" transform="translate(0.5 3)"/>
</clipPath>
</defs>
</svg>
