<svg width="153" height="30" viewBox="0 0 153 30" fill="none" xmlns="http://www.w3.org/2000/svg">
<path d="M12.5 25C18.0228 25 22.5 20.5228 22.5 15C22.5 9.47715 18.0228 5 12.5 5C6.97715 5 2.5 9.47715 2.5 15C2.5 20.5228 6.97715 25 12.5 25Z" stroke="#495057" stroke-width="2" stroke-linecap="round" stroke-linejoin="round"/>
<path d="M9.59 12.0001C9.8251 11.3317 10.2891 10.7682 10.9 10.4092C11.5108 10.0502 12.2289 9.91902 12.9272 10.0388C13.6255 10.1586 14.2588 10.5216 14.7151 11.0636C15.1713 11.6056 15.4211 12.2916 15.42 13.0001C15.42 15.0001 12.42 16.0001 12.42 16.0001" stroke="#495057" stroke-width="2" stroke-linecap="round" stroke-linejoin="round"/>
<path d="M12.5 20H12.51" stroke="#495057" stroke-width="2" stroke-linecap="round" stroke-linejoin="round"/>
<path d="M37.1348 15.3535H40.2871V19.6543C39.7715 19.8223 39.2754 19.9414 38.7988 20.0117C38.3262 20.082 37.8145 20.1172 37.2637 20.1172C35.9668 20.1172 34.9668 19.7344 34.2637 18.9688C33.5605 18.1992 33.209 17.1152 33.209 15.7168C33.209 14.3379 33.6055 13.2598 34.3984 12.4824C35.1914 11.7012 36.2832 11.3105 37.6738 11.3105C38.5684 11.3105 39.416 11.4824 40.2168 11.8262L39.7246 12.9922C39.0293 12.6719 38.334 12.5117 37.6387 12.5117C36.7246 12.5117 36.002 12.7988 35.4707 13.373C34.9395 13.9473 34.6738 14.7324 34.6738 15.7285C34.6738 16.7754 34.9121 17.5723 35.3887 18.1191C35.8691 18.6621 36.5586 18.9336 37.457 18.9336C37.9102 18.9336 38.3945 18.877 38.9102 18.7637V16.5547H37.1348V15.3535ZM50.0245 11.4336V16.9766C50.0245 17.6094 49.8877 18.1641 49.6143 18.6406C49.3448 19.1133 48.9522 19.4785 48.4366 19.7363C47.9248 19.9902 47.3116 20.1172 46.5967 20.1172C45.5342 20.1172 44.708 19.8359 44.1182 19.2734C43.5284 18.7109 43.2334 17.9375 43.2334 16.9531V11.4336H44.6397V16.8535C44.6397 17.5605 44.8038 18.082 45.1319 18.418C45.46 18.7539 45.9639 18.9219 46.6436 18.9219C47.9639 18.9219 48.6241 18.2285 48.6241 16.8418V11.4336H50.0245ZM53.1759 20V11.4336H54.5763V20H53.1759ZM64.7706 15.6348C64.7706 17.0488 64.378 18.1309 63.5929 18.8809C62.8077 19.627 61.6769 20 60.2003 20H57.8038V11.4336H60.4523C61.8155 11.4336 62.8761 11.8008 63.6339 12.5352C64.3917 13.2695 64.7706 14.3027 64.7706 15.6348ZM63.2941 15.6816C63.2941 13.6309 62.3351 12.6055 60.4171 12.6055H59.2042V18.8223H60.2003C62.2628 18.8223 63.2941 17.7754 63.2941 15.6816ZM72.422 20H67.5763V11.4336H72.422V12.6172H68.9767V14.9492H72.2052V16.1211H68.9767V18.8105H72.422V20ZM80.8284 13.2793C80.8284 13.5254 80.8928 13.7578 81.0217 13.9766C81.1545 14.1953 81.3381 14.4277 81.5725 14.6738C82.0139 14.4238 82.3225 14.1914 82.4983 13.9766C82.678 13.7578 82.7678 13.5137 82.7678 13.2441C82.7678 12.9902 82.6819 12.7871 82.51 12.6348C82.342 12.4824 82.1174 12.4062 81.8362 12.4062C81.5276 12.4062 81.2815 12.4863 81.0979 12.6465C80.9182 12.8027 80.8284 13.0137 80.8284 13.2793ZM81.7014 18.9336C82.4162 18.9336 83.0276 18.7246 83.5354 18.3066L81.2912 16.0977C80.8772 16.3633 80.592 16.6133 80.4358 16.8477C80.2795 17.0781 80.2014 17.3418 80.2014 17.6387C80.2014 18.0215 80.3362 18.334 80.6057 18.5762C80.8791 18.8145 81.2444 18.9336 81.7014 18.9336ZM78.7483 17.7324C78.7483 17.2207 78.8733 16.7754 79.1233 16.3965C79.3733 16.0137 79.8245 15.6348 80.4768 15.2598C80.1057 14.8262 79.8518 14.4609 79.7151 14.1641C79.5823 13.8633 79.5159 13.5527 79.5159 13.2324C79.5159 12.6387 79.7268 12.1699 80.1487 11.8262C80.5745 11.4824 81.1448 11.3105 81.8596 11.3105C82.551 11.3105 83.094 11.4785 83.4885 11.8145C83.883 12.1465 84.0803 12.5957 84.0803 13.1621C84.0803 13.6074 83.9475 14.0117 83.6819 14.375C83.4202 14.7383 82.9807 15.1016 82.3635 15.4648L84.3909 17.4219C84.7073 17.0039 84.9709 16.3906 85.1819 15.582H86.5998C86.3264 16.6914 85.8889 17.5957 85.2873 18.2949L87.051 20H85.2756L84.4026 19.1504C84.0041 19.4707 83.5784 19.7129 83.1252 19.877C82.676 20.0371 82.178 20.1172 81.6311 20.1172C80.7327 20.1172 80.0276 19.9043 79.5159 19.4785C79.0041 19.0527 78.7483 18.4707 78.7483 17.7324ZM98.1761 17.6738C98.1761 18.4355 97.9007 19.0332 97.3499 19.4668C96.7991 19.9004 96.0394 20.1172 95.0706 20.1172C94.1019 20.1172 93.3089 19.9668 92.6917 19.666V18.3418C93.0823 18.5254 93.4964 18.6699 93.9339 18.7754C94.3753 18.8809 94.7855 18.9336 95.1644 18.9336C95.7191 18.9336 96.1273 18.8281 96.389 18.6172C96.6546 18.4062 96.7874 18.123 96.7874 17.7676C96.7874 17.4473 96.6663 17.1758 96.4241 16.9531C96.182 16.7305 95.682 16.4668 94.9241 16.1621C94.1429 15.8457 93.5921 15.4844 93.2718 15.0781C92.9515 14.6719 92.7913 14.1836 92.7913 13.6133C92.7913 12.8984 93.0452 12.3359 93.553 11.9258C94.0609 11.5156 94.7425 11.3105 95.598 11.3105C96.4183 11.3105 97.2347 11.4902 98.0472 11.8496L97.6019 12.9922C96.8402 12.6719 96.1605 12.5117 95.5628 12.5117C95.1097 12.5117 94.7659 12.6113 94.5316 12.8105C94.2972 13.0059 94.18 13.2656 94.18 13.5898C94.18 13.8125 94.2269 14.0039 94.3206 14.1641C94.4144 14.3203 94.5687 14.4688 94.7835 14.6094C94.9984 14.75 95.3851 14.9355 95.9437 15.166C96.5726 15.4277 97.0335 15.6719 97.3265 15.8984C97.6195 16.125 97.8343 16.3809 97.971 16.666C98.1077 16.9512 98.1761 17.2871 98.1761 17.6738ZM107.509 11.4336V16.9766C107.509 17.6094 107.372 18.1641 107.099 18.6406C106.829 19.1133 106.437 19.4785 105.921 19.7363C105.41 19.9902 104.796 20.1172 104.081 20.1172C103.019 20.1172 102.193 19.8359 101.603 19.2734C101.013 18.7109 100.718 17.9375 100.718 16.9531V11.4336H102.124V16.8535C102.124 17.5605 102.288 18.082 102.617 18.418C102.945 18.7539 103.449 18.9219 104.128 18.9219C105.449 18.9219 106.109 18.2285 106.109 16.8418V11.4336H107.509ZM116.332 14.0234C116.332 14.918 116.039 15.6035 115.454 16.0801C114.868 16.5566 114.034 16.7949 112.952 16.7949H112.061V20H110.661V11.4336H113.127C114.198 11.4336 114.998 11.6523 115.53 12.0898C116.065 12.5273 116.332 13.1719 116.332 14.0234ZM112.061 15.6172H112.805C113.524 15.6172 114.051 15.4922 114.387 15.2422C114.723 14.9922 114.891 14.6016 114.891 14.0703C114.891 13.5781 114.741 13.2109 114.44 12.9688C114.139 12.7266 113.67 12.6055 113.034 12.6055H112.061V15.6172ZM124.675 14.0234C124.675 14.918 124.382 15.6035 123.796 16.0801C123.21 16.5566 122.376 16.7949 121.294 16.7949H120.404V20H119.003V11.4336H121.47C122.54 11.4336 123.341 11.6523 123.872 12.0898C124.408 12.5273 124.675 13.1719 124.675 14.0234ZM120.404 15.6172H121.148C121.867 15.6172 122.394 15.4922 122.73 15.2422C123.066 14.9922 123.234 14.6016 123.234 14.0703C123.234 13.5781 123.083 13.2109 122.783 12.9688C122.482 12.7266 122.013 12.6055 121.376 12.6055H120.404V15.6172ZM134.952 15.7051C134.952 17.0996 134.602 18.1836 133.903 18.957C133.207 19.7305 132.221 20.1172 130.944 20.1172C129.651 20.1172 128.657 19.7344 127.961 18.9688C127.27 18.1992 126.924 17.1074 126.924 15.6934C126.924 14.2793 127.272 13.1934 127.967 12.4355C128.666 11.6777 129.663 11.2988 130.956 11.2988C132.229 11.2988 133.213 11.6836 133.909 12.4531C134.604 13.2227 134.952 14.3066 134.952 15.7051ZM128.413 15.7051C128.413 16.7598 128.625 17.5605 129.051 18.1074C129.477 18.6504 130.108 18.9219 130.944 18.9219C131.776 18.9219 132.403 18.6523 132.825 18.1133C133.25 17.5742 133.463 16.7715 133.463 15.7051C133.463 14.6543 133.252 13.8574 132.831 13.3145C132.413 12.7715 131.788 12.5 130.956 12.5C130.116 12.5 129.481 12.7715 129.051 13.3145C128.625 13.8574 128.413 14.6543 128.413 15.7051ZM139.152 15.418H140.125C140.777 15.418 141.25 15.2969 141.543 15.0547C141.835 14.8125 141.982 14.4531 141.982 13.9766C141.982 13.4922 141.824 13.1445 141.507 12.9336C141.191 12.7227 140.714 12.6172 140.078 12.6172H139.152V15.418ZM139.152 16.5781V20H137.751V11.4336H140.171C141.277 11.4336 142.095 11.6406 142.626 12.0547C143.158 12.4688 143.423 13.0938 143.423 13.9297C143.423 14.9961 142.869 15.7559 141.759 16.209L144.179 20H142.585L140.535 16.5781H139.152ZM149.346 20H147.946V12.6348H145.426V11.4336H151.866V12.6348H149.346V20Z" fill="#495057"/>
</svg>
