<svg width="21" height="16" viewBox="0 0 21 16" fill="none" xmlns="http://www.w3.org/2000/svg">
<path d="M20.4688 3.78125C20.5729 4.09375 20.5521 4.40625 20.4062 4.71875L18.75 8.03125C18.6042 8.34375 18.3646 8.55208 18.0312 8.65625C17.7188 8.76042 17.4167 8.72917 17.125 8.5625L16.4062 8.21875C16.3229 8.19792 16.2396 8.20833 16.1562 8.25C16.0729 8.29167 16.0312 8.36458 16.0312 8.46875V14.25C16.0312 14.7292 15.8542 15.1354 15.5 15.4688C15.1667 15.8229 14.7604 16 14.2812 16H6.78125C6.46875 16 6.17708 15.9167 5.90625 15.75C5.63542 15.6042 5.41667 15.3958 5.25 15.125C5.10417 14.8542 5.03125 14.5625 5.03125 14.25V8.4375C5.03125 8.35417 4.98958 8.29167 4.90625 8.25C4.84375 8.1875 4.77083 8.17708 4.6875 8.21875L3.9375 8.59375C3.64583 8.73958 3.33333 8.76042 3 8.65625C2.6875 8.53125 2.45833 8.32292 2.3125 8.03125L0.65625 4.71875C0.510417 4.40625 0.489583 4.09375 0.59375 3.78125C0.697917 3.46875 0.90625 3.23958 1.21875 3.09375L7.40625 0C7.40625 0 7.4375 0.0625 7.5 0.1875C7.58333 0.291667 7.64583 0.375 7.6875 0.4375C7.72917 0.479167 7.80208 0.5625 7.90625 0.6875C8.03125 0.791667 8.13542 0.875 8.21875 0.9375C8.32292 1 8.45833 1.08333 8.625 1.1875C8.79167 1.27083 8.95833 1.34375 9.125 1.40625C9.3125 1.44792 9.52083 1.48958 9.75 1.53125C10 1.55208 10.2604 1.5625 10.5312 1.5625C10.7812 1.5625 11.0104 1.55208 11.2188 1.53125C11.4271 1.51042 11.6146 1.47917 11.7812 1.4375C11.9688 1.375 12.125 1.32292 12.25 1.28125C12.3958 1.21875 12.5312 1.14583 12.6562 1.0625C12.7812 0.958333 12.8854 0.885417 12.9688 0.84375C13.0521 0.78125 13.1354 0.697917 13.2188 0.59375C13.3021 0.489583 13.3646 0.416667 13.4062 0.375C13.4479 0.333333 13.5 0.270833 13.5625 0.1875C13.625 0.0833333 13.6562 0.0208333 13.6562 0L19.8438 3.09375C20.1562 3.23958 20.3646 3.46875 20.4688 3.78125ZM17.5312 7.09375L18.9375 4.3125L14.0625 1.875C13.1875 2.66667 12.0104 3.0625 10.5312 3.0625C9.05208 3.0625 7.875 2.66667 7 1.875L2.125 4.3125L3.53125 7.09375L5.8125 6.03125C5.97917 5.94792 6.13542 5.95833 6.28125 6.0625C6.44792 6.16667 6.53125 6.30208 6.53125 6.46875V14.25C6.53125 14.4167 6.61458 14.5 6.78125 14.5H14.2812C14.4479 14.5 14.5312 14.4167 14.5312 14.25V6.46875C14.5312 6.28125 14.6042 6.14583 14.75 6.0625C14.9167 5.95833 15.0833 5.94792 15.25 6.03125L17.5312 7.09375Z" fill="#ACB5BD"/>
</svg>
