<svg width="21" height="16" viewBox="0 0 21 16" fill="none" xmlns="http://www.w3.org/2000/svg">
<path d="M19 0C19.4167 0 19.7708 0.145833 20.0625 0.4375C20.3542 0.729167 20.5 1.08333 20.5 1.5V11.5C20.5 11.9167 20.3542 12.2708 20.0625 12.5625C19.7708 12.8542 19.4167 13 19 13H11.25V14.5H17C17.1458 14.5 17.2604 14.5417 17.3438 14.625C17.4479 14.7292 17.5 14.8542 17.5 15V15.5C17.5 15.6458 17.4479 15.7604 17.3438 15.8438C17.2604 15.9479 17.1458 16 17 16H4C3.85417 16 3.72917 15.9479 3.625 15.8438C3.54167 15.7604 3.5 15.6458 3.5 15.5V15C3.5 14.8542 3.54167 14.7292 3.625 14.625C3.72917 14.5417 3.85417 14.5 4 14.5H9.75V13H2C1.58333 13 1.22917 12.8542 0.9375 12.5625C0.645833 12.2708 0.5 11.9167 0.5 11.5V1.5C0.5 1.08333 0.645833 0.729167 0.9375 0.4375C1.22917 0.145833 1.58333 0 2 0H19ZM19 11.5V1.5H2V11.5H19Z" fill="#ACB5BD"/>
</svg>
