<svg width="13" height="16" viewBox="0 0 13 16" fill="none" xmlns="http://www.w3.org/2000/svg">
<path d="M8.28125 4.28125C7.80208 4.76042 7.21875 5 6.53125 5C5.84375 5 5.25 4.76042 4.75 4.28125C4.27083 3.78125 4.03125 3.1875 4.03125 2.5C4.03125 1.8125 4.27083 1.22917 4.75 0.75C5.25 0.25 5.84375 0 6.53125 0C7.21875 0 7.80208 0.25 8.28125 0.75C8.78125 1.22917 9.03125 1.8125 9.03125 2.5C9.03125 3.1875 8.78125 3.78125 8.28125 4.28125ZM10.7812 6.75C10.2604 7.10417 9.67708 7.40625 9.03125 7.65625V8.90625C9.36458 9.09375 9.53125 9.375 9.53125 9.75V10.3438C9.53125 10.5104 9.47917 10.6875 9.375 10.875L10.5625 12.375C10.8958 12.7708 10.9062 13.1771 10.5938 13.5938L9.09375 15.5938C8.88542 15.8646 8.61458 16 8.28125 16C8.07292 16 7.875 15.9375 7.6875 15.8125C7.45833 15.6458 7.32292 15.4167 7.28125 15.125C7.26042 14.8542 7.33333 14.6146 7.5 14.4062L8.53125 13.0312L7.9375 12.3125C7.58333 12.6042 7.17708 12.75 6.71875 12.75H6.375C5.91667 12.75 5.5 12.6042 5.125 12.3125L4.53125 13.0312L5.59375 14.4062C5.76042 14.6146 5.82292 14.8542 5.78125 15.125C5.73958 15.4167 5.60417 15.6458 5.375 15.8125C5.20833 15.9375 5.01042 16 4.78125 16C4.44792 16 4.17708 15.8646 3.96875 15.5938L2.46875 13.5938C2.17708 13.1771 2.1875 12.7708 2.5 12.375L3.6875 10.875C3.58333 10.6875 3.53125 10.5104 3.53125 10.3438V9.75C3.53125 9.375 3.69792 9.09375 4.03125 8.90625V7.65625C3.38542 7.40625 2.80208 7.10417 2.28125 6.75L0.9375 5.8125C0.729167 5.66667 0.59375 5.45833 0.53125 5.1875C0.489583 4.89583 0.541667 4.64583 0.6875 4.4375C0.854167 4.20833 1.07292 4.07292 1.34375 4.03125C1.61458 3.96875 1.86458 4.02083 2.09375 4.1875L3.4375 5.125C4.35417 5.77083 5.38542 6.09375 6.53125 6.09375C7.67708 6.09375 8.70833 5.77083 9.625 5.125L10.9688 4.1875C11.1771 4.02083 11.4167 3.96875 11.6875 4.03125C11.9792 4.07292 12.1979 4.20833 12.3438 4.4375C12.5104 4.64583 12.5625 4.89583 12.5 5.1875C12.4583 5.45833 12.3229 5.66667 12.0938 5.8125L10.7812 6.75ZM8.53125 10.3438V9.75H4.53125V10.3438L5.65625 11.4688C5.84375 11.6562 6.07292 11.75 6.34375 11.75H6.71875C6.98958 11.75 7.21875 11.6562 7.40625 11.4688L8.53125 10.3438Z" fill="#ACB5BD"/>
</svg>
