<svg width="21" height="16" viewBox="0 0 21 16" fill="none" xmlns="http://www.w3.org/2000/svg">
<path d="M20 11C20.1458 11 20.2604 11.0521 20.3438 11.1562C20.4479 11.2396 20.5 11.3542 20.5 11.5V13C20.5 13.8333 20.2083 14.5417 19.625 15.125C19.0417 15.7083 18.3333 16 17.5 16H3.5C2.66667 16 1.95833 15.7083 1.375 15.125C0.791667 14.5417 0.5 13.8333 0.5 13V11.5C0.5 11.3542 0.541667 11.2396 0.625 11.1562C0.729167 11.0521 0.854167 11 1 11H2.5V2C2.5 1.45833 2.69792 0.989583 3.09375 0.59375C3.48958 0.197917 3.95833 0 4.5 0H16.5C17.0417 0 17.5104 0.197917 17.9062 0.59375C18.3021 0.989583 18.5 1.45833 18.5 2V11H20ZM4 2V11H17V2C17 1.85417 16.9479 1.73958 16.8438 1.65625C16.7604 1.55208 16.6458 1.5 16.5 1.5H4.5C4.35417 1.5 4.22917 1.55208 4.125 1.65625C4.04167 1.73958 4 1.85417 4 2ZM19 13V12.5H13.3438C13.1562 12.8333 12.875 13 12.5 13H8.5C8.125 13 7.84375 12.8333 7.65625 12.5H2V13C2 13.4167 2.14583 13.7708 2.4375 14.0625C2.72917 14.3542 3.08333 14.5 3.5 14.5H17.5C17.9167 14.5 18.2708 14.3542 18.5625 14.0625C18.8542 13.7708 19 13.4167 19 13Z" fill="#ACB5BD"/>
</svg>
