<svg width="13" height="16" viewBox="0 0 13 16" fill="none" xmlns="http://www.w3.org/2000/svg">
<path d="M10.25 0.75V3.5H8.75V0.75C8.75 0.541667 8.82292 0.364583 8.96875 0.21875C9.11458 0.0729167 9.29167 0 9.5 0C9.70833 0 9.88542 0.0729167 10.0312 0.21875C10.1771 0.364583 10.25 0.541667 10.25 0.75ZM4.25 0.75V3.5H2.75V0.75C2.75 0.541667 2.82292 0.364583 2.96875 0.21875C3.11458 0.0729167 3.29167 0 3.5 0C3.70833 0 3.88542 0.0729167 4.03125 0.21875C4.17708 0.364583 4.25 0.541667 4.25 0.75ZM12 4.5C12.1458 4.5 12.2604 4.55208 12.3438 4.65625C12.4479 4.73958 12.5 4.85417 12.5 5V5.5C12.5 5.64583 12.4479 5.77083 12.3438 5.875C12.2604 5.95833 12.1458 6 12 6H11.5V8C11.5 9.25 11.0938 10.3438 10.2812 11.2812C9.46875 12.1979 8.45833 12.75 7.25 12.9375V16H5.75V12.9375C4.54167 12.75 3.53125 12.1979 2.71875 11.2812C1.90625 10.3438 1.5 9.25 1.5 8V6H1C0.854167 6 0.729167 5.95833 0.625 5.875C0.541667 5.77083 0.5 5.64583 0.5 5.5V5C0.5 4.85417 0.541667 4.73958 0.625 4.65625C0.729167 4.55208 0.854167 4.5 1 4.5H12ZM10 8V6H3V8C3 8.95833 3.34375 9.78125 4.03125 10.4688C4.71875 11.1562 5.54167 11.5 6.5 11.5C7.45833 11.5 8.28125 11.1562 8.96875 10.4688C9.65625 9.78125 10 8.95833 10 8Z" fill="#ACB5BD"/>
</svg>
